<svg xmlns="http://www.w3.org/2000/svg" id="Reference" viewBox="0 0 48 48"><defs><style>.cls-3{fill:#dee7f6}.cls-8{fill:#09105a}</style></defs><circle cx="24" cy="24" r="21" style="fill:#3160ad"/><circle cx="24" cy="24" r="17" style="fill:#fff"/><path d="m34.725 15.924-10.983 5.814a4.806 4.806 0 0 0-2.005 2.006l-5.813 10.981a1 1 0 0 0 1.351 1.351l10.983-5.814a4.806 4.806 0 0 0 2.005-2.006l5.813-10.981a1 1 0 0 0-1.351-1.351Z" class="cls-3"/><path d="M10 27a16.982 16.982 0 0 1 27.416-13.416 16.987 16.987 0 1 0-23.832 23.832A16.912 16.912 0 0 1 10 27Z" class="cls-3"/><path d="m33.192 14.808-10.981 5.813a3.832 3.832 0 0 0-1.59 1.59l-5.813 10.981 10.981-5.813a3.832 3.832 0 0 0 1.59-1.59Z" style="fill:#d65363"/><path d="m27.379 25.789 5.813-10.981-18.384 18.384 10.981-5.813a3.832 3.832 0 0 0 1.59-1.59Z" style="fill:#c94551"/><path d="m14.808 33.192 10.981-5.813a3.808 3.808 0 0 0 .911-.679l-5.4-5.4a3.808 3.808 0 0 0-.676.914Z" style="fill:#58acdd"/><path d="M26.7 26.7 24 24l-9.192 9.192 10.981-5.813a3.808 3.808 0 0 0 .911-.679Z" style="fill:#508cd1"/><path d="M24 2a22 22 0 1 0 22 22A22.025 22.025 0 0 0 24 2Zm0 42a20 20 0 1 1 20-20 20.023 20.023 0 0 1-20 20Z" class="cls-8"/><path d="M24 6a18 18 0 1 0 18 18A18.021 18.021 0 0 0 24 6Zm1 33.949V37a1 1 0 0 0-2 0v2.949A16 16 0 0 1 8.051 25H11a1 1 0 0 0 0-2H8.051A16 16 0 0 1 23 8.051V11a1 1 0 0 0 2 0V8.051A16 16 0 0 1 39.949 23H37a1 1 0 0 0 0 2h2.949A16 16 0 0 1 25 39.949Z" class="cls-8"/><path d="m32.725 13.924-10.983 5.814a4.806 4.806 0 0 0-2.005 2.006l-5.813 10.981a1 1 0 0 0 1.351 1.351l10.983-5.814a4.806 4.806 0 0 0 2.005-2.006l5.813-10.981a1 1 0 0 0-1.351-1.351Zm-11.3 8.912 3.742 3.742-7.952 4.21Zm5.156 2.328-3.742-3.742 7.952-4.21Z" class="cls-8"/></svg>