<?xml version="1.0" encoding="UTF-8" standalone="no"?> <svg xmlns="http://www.w3.org/2000/svg" viewBox="0 0 512 512"><g id="filled_outline" data-name="filled outline"><path d="M256,192a8,8,0,0,1-8-8,40.047,40.047,0,0,1,40-40h24a16,16,0,0,0,0-32H288a40.047,40.047,0,0,1-40-40,8,8,0,0,1,16,0,24.027,24.027,0,0,0,24,24h24a32,32,0,0,1,0,64H288a24.027,24.027,0,0,0-24,24A8,8,0,0,1,256,192Z" style="fill:#b9b9b9"/><rect x="24" y="216" width="464" height="224" rx="112" ry="112" style="fill:#fbb540"/><circle cx="128" cy="328" r="72" style="fill:#4799cf"/><polygon points="168 312 144 312 144 288 112 288 112 312 88 312 88 344 112 344 112 368 144 368 144 344 168 344 168 312" style="fill:#fd9226"/><path d="M392,306.734a23.99,23.99,0,0,1-16.973-40.961h0c9.063-9.062,24.871-9.062,33.942,0A23.99,23.99,0,0,1,392,306.734Z" style="fill:#fd9226"/><path d="M437.254,351.984a23.983,23.983,0,1,1,16.976-7.015A23.921,23.921,0,0,1,437.254,351.984Z" style="fill:#4799cf"/><path d="M346.742,351.984a23.986,23.986,0,0,1-16.972-40.953h0a24,24,0,1,1,16.969,40.953Z" style="fill:#4799cf"/><path d="M392,397.258a24,24,0,0,1-16.969-40.977h0A24,24,0,1,1,392,397.258Z" style="fill:#fd9226"/><path d="M248,336H232a8,8,0,0,1,0-16h16a8,8,0,0,1,0,16Z" style="fill:#d18d28"/><path d="M296,336H280a8,8,0,0,1,0-16h16a8,8,0,0,1,0,16Z" style="fill:#d18d28"/><polygon points="280 216 232 216 240 184 272 184 280 216" style="fill:#a8a8a8"/><path d="M256,248h0a40.984,40.984,0,0,1-39.761-31.045L216,216h80l-.239.955A40.984,40.984,0,0,1,256,248Z" style="fill:#d18d28"/><path d="M152,304V288a8,8,0,0,0-8-8H112a8,8,0,0,0-8,8v16H88a8,8,0,0,0-8,8v32a8,8,0,0,0,8,8h16v16a8,8,0,0,0,8,8h32a8,8,0,0,0,8-8V352h16a8,8,0,0,0,8-8V312a8,8,0,0,0-8-8Zm8,32H144a8,8,0,0,0-8,8v16H120V344a8,8,0,0,0-8-8H96V320h16a8,8,0,0,0,8-8V296h16v16a8,8,0,0,0,8,8h16Z"/><path d="M128,248a80,80,0,1,0,80,80A80.092,80.092,0,0,0,128,248Zm0,144a64,64,0,1,1,64-64A64.073,64.073,0,0,1,128,392Z"/><path d="M392,306.734a23.99,23.99,0,0,0,16.973-40.961c-9.071-9.062-24.879-9.062-33.942,0h0A23.99,23.99,0,0,0,392,306.734Zm-5.656-29.648h0a7.991,7.991,0,0,1,11.308,0,8,8,0,1,1-11.312,0Z"/><path d="M420.285,311.031a24,24,0,1,0,33.942,0A24.021,24.021,0,0,0,420.285,311.031Zm22.625,11.313a8.015,8.015,0,1,1-5.652-2.336A8.015,8.015,0,0,1,442.91,322.344Z"/><path d="M363.715,311.031a24.018,24.018,0,0,0-33.942,0h0a24,24,0,1,0,33.945,0ZM352.4,333.656a8,8,0,1,1,0-11.312A8,8,0,0,1,352.4,333.656Z"/><path d="M375.031,356.281a24,24,0,1,0,33.938,0A24.034,24.034,0,0,0,375.031,356.281Zm22.621,22.633a8.168,8.168,0,0,1-11.308,0,8,8,0,1,1,11.308,0Z"/><path d="M248,320H232a8,8,0,0,0,0,16h16a8,8,0,0,0,0-16Z"/><path d="M296,320H280a8,8,0,0,0,0,16h16a8,8,0,0,0,0-16Z"/><path d="M376,208H286.246l-6.484-25.938A8,8,0,0,0,272,176h-6.526A23.96,23.96,0,0,1,288,160h24a32,32,0,0,0,0-64H288a24.027,24.027,0,0,1-24-24,8,8,0,0,0-16,0,40.047,40.047,0,0,0,40,40h24a16,16,0,0,1,0,32H288a40.067,40.067,0,0,0-39.191,32H240a8,8,0,0,0-7.762,6.062L225.754,208H136a120,120,0,0,0,0,240H376a120,120,0,0,0,0-240ZM246.246,192h19.508l4,16H242.246ZM232,224h52.285a33,33,0,0,1-56.57,0ZM376,432H136a104,104,0,0,1,0-208h74.221a48.746,48.746,0,0,0,91.558,0H376a104,104,0,0,1,0,208Z"/></g></svg>