<?xml version="1.0" encoding="UTF-8"?>
<!DOCTYPE svg PUBLIC "-//W3C//DTD SVG 1.1//EN" "http://www.w3.org/Graphics/SVG/1.1/DTD/svg11.dtd">
<!-- Creator: CorelDRAW -->
<svg xmlns="http://www.w3.org/2000/svg" xml:space="preserve" width="1.70666in" height="1.70666in" version="1.1" style="shape-rendering:geometricPrecision; text-rendering:geometricPrecision; image-rendering:optimizeQuality; fill-rule:evenodd; clip-rule:evenodd"
viewBox="0 0 1706.66 1706.66"
 xmlns:xlink="http://www.w3.org/1999/xlink"
 xmlns:xodm="http://www.corel.com/coreldraw/odm/2003">
 <defs>
  <style type="text/css">
   <![CDATA[
    .fil8 {fill:url(#id0)}
    .fil10 {fill:url(#id1)}
    .fil12 {fill:url(#id2)}
    .fil6 {fill:url(#id3)}
    .fil4 {fill:url(#id4)}
    .fil2 {fill:url(#id5)}
    .fil1 {fill:url(#id6)}
    .fil5 {fill:url(#id7)}
    .fil0 {fill:url(#id8)}
    .fil11 {fill:url(#id9)}
    .fil7 {fill:url(#id10)}
    .fil3 {fill:url(#id11)}
    .fil9 {fill:url(#id12)}
   ]]>
  </style>
  <linearGradient id="id0" gradientUnits="userSpaceOnUse" x1="533.13" y1="285.68" x2="1169.78" y2="285.68">
   <stop offset="0" style="stop-opacity:1; stop-color:#C73C5B"/>
   <stop offset="1" style="stop-opacity:1; stop-color:#A32F60"/>
  </linearGradient>
  <linearGradient id="id1" gradientUnits="userSpaceOnUse" xlink:href="#id0" x1="738.65" y1="1397.07" x2="955.21" y2="1397.07">
  </linearGradient>
  <linearGradient id="id2" gradientUnits="userSpaceOnUse" xlink:href="#id0" x1="774.07" y1="1109.57" x2="919.8" y2="1109.57">
  </linearGradient>
  <linearGradient id="id3" gradientUnits="userSpaceOnUse" xlink:href="#id0" x1="958.2" y1="1059.83" x2="1298.5" y2="1059.83">
  </linearGradient>
  <linearGradient id="id4" gradientUnits="userSpaceOnUse" x1="1070.93" y1="1011.88" x2="1326.04" y2="1011.88">
   <stop offset="0" style="stop-opacity:1; stop-color:#E87EA2"/>
   <stop offset="1" style="stop-opacity:1; stop-color:#FCD3A5"/>
  </linearGradient>
  <linearGradient id="id5" gradientUnits="userSpaceOnUse" xlink:href="#id0" x1="333.41" y1="454.25" x2="448.4" y2="454.25">
  </linearGradient>
  <linearGradient id="id6" gradientUnits="userSpaceOnUse" xlink:href="#id0" x1="1258.26" y1="454.25" x2="1373.25" y2="454.25">
  </linearGradient>
  <linearGradient id="id7" gradientUnits="userSpaceOnUse" xlink:href="#id4" x1="408.48" y1="853.32" x2="1298.64" y2="853.32">
  </linearGradient>
  <linearGradient id="id8" gradientUnits="userSpaceOnUse" xlink:href="#id4" x1="742.53" y1="290.33" x2="963.99" y2="290.33">
  </linearGradient>
  <linearGradient id="id9" gradientUnits="userSpaceOnUse" xlink:href="#id0" x1="757.41" y1="1253.32" x2="936.47" y2="1253.32">
  </linearGradient>
  <linearGradient id="id10" gradientUnits="userSpaceOnUse" xlink:href="#id0" x1="408.55" y1="1059.99" x2="748.31" y2="1059.99">
  </linearGradient>
  <linearGradient id="id11" gradientUnits="userSpaceOnUse" xlink:href="#id4" x1="378" y1="1011.5" x2="647.74" y2="1011.5">
  </linearGradient>
  <linearGradient id="id12" gradientUnits="userSpaceOnUse" xlink:href="#id0" x1="833.26" y1="278.65" x2="873.26" y2="278.65">
  </linearGradient>
 </defs>
 <g id="Layer_x0020_1">
  <metadata id="CorelCorpID_0Corel-Layer"/>
  <path class="fil0" d="M944.23 474.27l-181.94 0c-26.36,0 -26.36,-367.89 0,-367.89l181.94 0c26.27,0 26.43,367.89 0,367.89z"/>
  <path class="fil1" d="M1286.59 606.8c-11.54,0 -28.33,-1.03 -28.33,-20l0 -264.58c0,-42.23 115,-18.89 115,66.67l0 131.25c0,47.92 -38.89,86.67 -86.67,86.67z"/>
  <path class="fil2" d="M428.4 606.8l-8.33 0c-47.78,0 -86.67,-38.89 -86.67,-86.67l0 -131.25c0,-85.52 115,-108.93 115,-66.67l0 264.58c0,11.11 -9.03,20 -20,20z"/>
  <path class="fil3" d="M528.12 1269.71c-1.25,0 -2.5,-0.14 -3.61,-0.28 -83.47,-15.56 -146.53,-130.97 -146.53,-268.61 0,-104.58 35.28,-197.63 92.22,-242.91 20.45,-16.38 45.4,14.96 24.86,31.25 229.59,160.86 164.76,463.68 36.67,440.96 -23.85,-4.23 20.19,39.59 -3.61,39.59z"/>
  <path class="fil4" d="M1176.17 1269.71c-24.18,0 -27.1,-35.29 -3.61,-39.72 -144.39,-82.42 -137.36,-408.16 36.67,-440.96 25.8,-4.87 4.48,-47.59 24.86,-31.25 143.85,115.34 113.78,475.04 -54.31,511.52 -1.11,0.28 -2.36,0.41 -3.61,0.41z"/>
  <path class="fil5" d="M853.26 1706.65c-4.72,0 -9.44,-1.67 -13.19,-5l-368.33 -322.64c-6.94,-6.11 -8.89,-16.25 -4.44,-24.31 123.47,-234.17 31.81,-467.78 30.83,-470.14l-89.58 -295.41 0 -266.94c-2.36,-102.22 45,-133.47 54.44,-138.61l288.89 -180.56c13.06,-8.24 30.56,1.03 30.56,16.94l0 335.28c0,39.17 31.81,70.97 70.97,70.97 39.17,0 70.97,-31.81 70.97,-70.97l-0.01 -335.28c0,-15.91 17.49,-25.19 30.56,-16.94l288.89 180.56c9.44,5.14 56.81,36.39 54.44,139.17 -0.35,30.22 1.52,264.56 -0.83,272.22l-88.75 289.58c-0.97,2.36 -92.78,235.97 30.83,470.14 4.31,8.19 2.5,18.33 -4.44,24.31l-368.33 322.64c-4.04,3.33 -8.76,5 -13.48,5z"/>
  <path class="fil6" d="M1298.5 552.63c-0.16,23.98 -0.48,40.43 -1.08,42.37l-88.75 289.58c-0.97,2.36 -92.78,235.97 30.83,470.14 4.31,8.19 2.5,18.33 -4.44,24.31l-214.65 188.02 -62.17 -814.13c-0.56,-7.92 3.47,-15.42 10.42,-19.17l329.83 -181.12z"/>
  <path class="fil7" d="M687.03 1567.61l-215.3 -188.59c-6.94,-6.11 -8.89,-16.25 -4.44,-24.31 123.47,-234.17 31.81,-467.78 30.83,-470.14l-89.58 -295.41 0 -36.79 329.3 181.52c6.94,3.75 10.97,11.25 10.42,19.17l-61.23 814.56z"/>
  <path class="fil8" d="M533.12 139.77l218.75 -136.72c13.06,-8.24 30.56,1.03 30.56,16.94l0 335.28c0,39.17 31.81,70.97 70.97,70.97 39.17,0 70.97,-31.81 70.97,-70.97l-0.01 -335.28c0,-15.91 17.49,-25.19 30.56,-16.94l214.86 134.29 0 148.35c0,157.46 -128.19,285.69 -285.69,285.69l-65.28 0c-157.5,0 -285.69,-128.19 -285.69,-285.69l0 -145.92z"/>
  <path class="fil9" d="M853.26 347.5c-11.11,0 -20,-8.89 -20,-20l0 -97.92c0,-26.36 40,-26.36 40,0l0 97.92c0,10.97 -8.89,20 -20,20z"/>
  <path class="fil10" d="M935.48 1417.07l-177.08 0c-26.33,0 -26.33,-40 0,-40l177.08 0c26.23,0 26.39,40 0,40z"/>
  <path class="fil11" d="M916.73 1273.32l-139.58 0c-26.33,0 -26.33,-40 0,-40l139.58 0c26.24,0 26.39,40 0,40z"/>
  <path class="fil12" d="M900.06 1129.57l-106.25 0c-26.33,0 -26.33,-40 0,-40l106.25 0c26.24,0 26.39,40 0,40z"/>
 </g>
</svg>
