<?xml version="1.0" encoding="UTF-8" standalone="no"?> <svg width="60" height="60" viewBox="0 0 60 60" fill="none" xmlns="http://www.w3.org/2000/svg">
<g clip-path="url(#clip0)">
<path d="M59.25 21.1L53.33 27.02H47.89L46.29 25.41L44.68 23.81V18.37L50.6 12.45L53.41 18.29L59.25 21.1ZM41.71 6.59L38.9 0.75L32.98 6.67V12.11L34.59 13.71L36.19 15.32H41.63L47.55 9.4L41.71 6.59Z" fill="#628296"/>
<path d="M59.2498 21.0998L53.3298 27.0198H47.8898L46.2898 25.4098L53.4098 18.2898L59.2498 21.0998ZM41.7098 6.58984L34.5898 13.7098L36.1898 15.3198H41.6298L47.5498 9.39984L41.7098 6.58984Z" fill="#A7BDCD"/>
<path d="M47.89 27.0199L42.52 33.8099L31.19 45.1399L29.24 37.8199L37.95 29.1099L44.68 23.8099L47.89 27.0199ZM32.98 12.1099L26.25 17.4199L17.54 26.1299L19.5 33.4399L30.82 22.1099L36.19 15.3199L32.98 12.1099Z" fill="#FFCD69"/>
<path d="M19.5001 33.4399L10.6401 42.2999L6.10006 42.1999L6.06006 37.5999L9.23006 34.4399L17.5401 26.1299L19.5001 33.4399ZM29.2401 37.8199L26.4701 40.5999L23.7001 43.3599L17.7601 49.2999L17.8001 53.8999L22.3301 53.9999L31.1901 45.1399L29.2401 37.8199Z" fill="#FF7D97"/>
<path d="M59.57 20.4202L53.97 17.7302L51.27 12.1202C51.2197 12.0134 51.1444 11.9203 51.0504 11.8489C50.9563 11.7775 50.8464 11.7299 50.73 11.7102C50.6112 11.6907 50.4896 11.6996 50.3749 11.7361C50.2602 11.7726 50.1557 11.8357 50.07 11.9202L44.15 17.8302C44.0106 17.9756 43.9319 18.1687 43.93 18.3702V23.4502L37.42 28.5802L17.23 48.7702C17.1596 48.8406 17.104 48.9242 17.0662 49.0163C17.0284 49.1084 17.0093 49.2071 17.01 49.3066L17.04 53.6102C17.0301 53.6102 17.02 53.6202 17.01 53.6302L11.92 58.7202C11.8504 58.7898 11.7952 58.8724 11.7575 58.9633C11.7199 59.0543 11.7005 59.1517 11.7005 59.2502C11.7005 59.3486 11.7199 59.4461 11.7575 59.537C11.7952 59.628 11.8504 59.7106 11.92 59.7802C11.9896 59.8498 12.0723 59.905 12.1632 59.9427C12.2541 59.9803 12.3516 59.9997 12.45 59.9997C12.5485 59.9997 12.6459 59.9803 12.7369 59.9427C12.8278 59.905 12.9104 59.8498 12.98 59.7802L18.07 54.6902L18.1 54.6602L22.32 54.7502H22.33C22.4285 54.7501 22.526 54.7307 22.6169 54.6929C22.7079 54.6552 22.7905 54.5999 22.86 54.5302L33.9389 43.4608C34.0087 43.3911 34.064 43.3084 34.1017 43.2173C34.1395 43.1263 34.1589 43.0287 34.1589 42.9301C34.159 42.8315 34.1396 42.7339 34.1019 42.6429C34.0641 42.5518 34.0089 42.469 33.9392 42.3993V42.3993C33.7987 42.2589 33.6082 42.1798 33.4096 42.1796C33.2109 42.1793 33.0203 42.2578 32.8794 42.3979L31.58 43.6902L30.07 38.0502L37.94 30.1702L41.52 33.7502L41.0054 34.2698C40.8658 34.4107 40.7877 34.6011 40.7882 34.7994C40.7887 34.9978 40.8676 35.1878 41.0079 35.3281V35.3281C41.0777 35.3979 41.1606 35.4532 41.2518 35.4909C41.343 35.5286 41.4408 35.5479 41.5395 35.5478C41.6382 35.5476 41.7359 35.528 41.827 35.49C41.9181 35.452 42.0008 35.3964 42.0704 35.3264L43.11 34.2802L48.25 27.7702H53.33C53.5285 27.7702 53.7189 27.6913 53.8592 27.551L59.78 21.6302C59.8655 21.5452 59.9292 21.4409 59.9658 21.326C60.0023 21.2112 60.0106 21.0892 59.99 20.9705C59.9694 20.8518 59.9205 20.7397 59.8474 20.6439C59.7743 20.5481 59.6791 20.4714 59.57 20.4202V20.4202ZM22.03 53.2402L18.54 53.1702L18.52 49.6102L20.54 47.5802L22.05 53.2202L22.03 53.2402ZM23.27 52.0002L21.76 46.3602L23.31 44.8102L24.82 50.4502L23.27 52.0002ZM26.04 49.2302L24.53 43.5902L26.08 42.0402L27.59 47.6802L26.04 49.2302ZM30.36 44.9102L28.81 46.4602L27.3 40.8202L28.85 39.2702L30.36 44.9102ZM45.43 18.6802L50.38 13.7302L52.5 18.1402L46.29 24.3502V24.3602L45.43 23.5002V18.6802ZM42.51 32.6202L39.08 29.1802L44.62 24.8102L45.76 25.9402L46.89 27.0802L42.51 32.6202ZM53.02 26.2702H48.2L47.35 25.4202L53.56 19.2002L57.97 21.3202L53.02 26.2702ZM35.35 40.9802C35.4196 41.0498 35.5023 41.105 35.5932 41.1427C35.6841 41.1803 35.7816 41.1997 35.88 41.1997C35.9785 41.1997 36.0759 41.1803 36.1669 41.1427C36.2578 41.105 36.3404 41.0498 36.41 40.9802L39.59 37.8002C39.6596 37.7306 39.7148 37.648 39.7525 37.557C39.7902 37.4661 39.8096 37.3686 39.8096 37.2702C39.8096 37.1717 39.7902 37.0743 39.7525 36.9833C39.7148 36.8924 39.6596 36.8098 39.59 36.7402C39.5204 36.6706 39.4378 36.6154 39.3469 36.5777C39.2559 36.54 39.1585 36.5206 39.06 36.5206C38.9616 36.5206 38.8641 36.54 38.7732 36.5777C38.6823 36.6154 38.5996 36.6706 38.53 36.7402L35.35 39.9202C35.2804 39.9898 35.2252 40.0724 35.1875 40.1633C35.1499 40.2543 35.1305 40.3517 35.1305 40.4502C35.1305 40.5486 35.1499 40.6461 35.1875 40.737C35.2252 40.828 35.2804 40.9106 35.35 40.9802ZM47.87 8.72004L42.27 6.03004L39.57 0.420051C39.5197 0.313229 39.4444 0.220153 39.3504 0.14876C39.2563 0.0773679 39.1464 0.0297783 39.03 0.0100506C38.9112 -0.00940796 38.7896 -0.00052873 38.6749 0.0359648C38.5602 0.0724583 38.4557 0.135534 38.37 0.220051L32.45 6.13005C32.3106 6.27547 32.2319 6.4686 32.23 6.67005V11.7501L25.72 16.88L5.53002 37.07C5.45964 37.1404 5.40395 37.224 5.36619 37.3161C5.32842 37.4082 5.30933 37.5069 5.31002 37.6064L5.34002 41.91C5.33007 41.91 5.32002 41.92 5.31002 41.93L0.220021 47.02C0.0794567 47.1606 0.000488281 47.3512 0.000488281 47.55C0.000488281 47.7488 0.0794567 47.9394 0.220021 48.08C0.360586 48.2206 0.551233 48.2995 0.750021 48.2995C0.94881 48.2995 1.13946 48.2206 1.28002 48.08L6.37002 42.99L6.40002 42.96L10.62 43.05H10.63C10.7285 43.05 10.826 43.0305 10.9169 42.9928C11.0079 42.955 11.0905 42.8997 11.16 42.83L22.2389 31.7607C22.3086 31.691 22.364 31.6083 22.4017 31.5172C22.4395 31.4262 22.4589 31.3286 22.4589 31.23C22.459 31.1314 22.4396 31.0338 22.4018 30.9427C22.3641 30.8517 22.3088 30.7689 22.2391 30.6992V30.6992C22.0987 30.5587 21.9082 30.4797 21.7096 30.4794C21.5109 30.4792 21.3202 30.5577 21.1794 30.6978L19.88 31.9901L18.37 26.3501L26.24 18.4701L29.82 22.0501L29.3054 22.5696C29.1658 22.7105 29.0877 22.901 29.0882 23.0993C29.0886 23.2976 29.1676 23.4877 29.3079 23.6279V23.6279C29.3777 23.6977 29.4606 23.7531 29.5518 23.7908C29.643 23.8285 29.7408 23.8478 29.8395 23.8476C29.9382 23.8475 30.0359 23.8278 30.127 23.7899C30.2181 23.7519 30.3008 23.6963 30.3704 23.6263L31.41 22.58L36.55 16.07H41.63C41.7283 16.07 41.8256 16.0507 41.9164 16.0131C42.0072 15.9755 42.0897 15.9203 42.1592 15.8508L48.08 9.93006C48.1655 9.84509 48.2292 9.74076 48.2658 9.62593C48.3023 9.51109 48.3106 9.38913 48.29 9.27039C48.2694 9.15165 48.2205 9.03963 48.1474 8.94382C48.0743 8.84802 47.9791 8.77127 47.87 8.72006V8.72004ZM10.33 41.54L6.84002 41.47L6.82002 37.91L8.84002 35.88L10.35 41.52L10.33 41.54ZM11.57 40.3L10.06 34.66L11.61 33.11L13.12 38.75L11.57 40.3ZM14.34 37.53L12.8301 31.89L14.3801 30.34L15.8901 35.98L14.34 37.53ZM18.66 33.21L17.11 34.76L15.6 29.1201L17.15 27.57L18.66 33.21ZM33.73 6.98004L38.68 2.03004L40.8 6.44004L34.59 12.65V12.66L33.73 11.8V6.98004ZM30.81 20.92L27.38 17.48L32.92 13.11L34.06 14.24L35.19 15.38L30.81 20.92ZM41.32 14.57H36.5L35.65 13.72L41.86 7.50004L46.27 9.62004L41.32 14.57ZM23.65 29.2801C23.7196 29.3497 23.8022 29.4049 23.8932 29.4426C23.9841 29.4802 24.0816 29.4996 24.18 29.4996C24.2785 29.4996 24.3759 29.4802 24.4669 29.4426C24.5578 29.4049 24.6404 29.3497 24.71 29.2801L27.89 26.1001C27.9596 26.0305 28.0148 25.9478 28.0525 25.8569C28.0902 25.766 28.1096 25.6685 28.1096 25.5701C28.1096 25.4716 28.0902 25.3742 28.0525 25.2832C28.0148 25.1923 27.9596 25.1097 27.89 25.0401C27.8204 24.9705 27.7378 24.9153 27.6469 24.8776C27.5559 24.8399 27.4585 24.8205 27.36 24.8205C27.2616 24.8205 27.1641 24.8399 27.0732 24.8776C26.9822 24.9153 26.8996 24.9705 26.83 25.0401L23.65 28.2201C23.5804 28.2897 23.5252 28.3723 23.4875 28.4632C23.4499 28.5542 23.4305 28.6516 23.4305 28.7501C23.4305 28.8485 23.4499 28.946 23.4875 29.0369C23.5252 29.1278 23.5804 29.2105 23.65 29.2801Z" fill="black"/>
</g>
<defs>
<clipPath id="clip0">
<rect width="60" height="60" fill="white"/>
</clipPath>
</defs>
</svg>
