<svg xmlns="http://www.w3.org/2000/svg" id="Reference" viewBox="0 0 48 48"><defs><style>.cls-4{fill:#09105a}</style></defs><path d="M43 15.34v17.32a3.982 3.982 0 0 1-2 3.46l-15 8.66a3.979 3.979 0 0 1-2 .54V23.97l18.45-10.65a3.927 3.927 0 0 1 .55 2.02Z" style="fill:#c5d4dd"/><path d="M24 23.97v21.35a3.979 3.979 0 0 1-2-.54L7 36.12a3.982 3.982 0 0 1-2-3.46V15.34a3.927 3.927 0 0 1 .55-2.02Z" style="fill:#e9eef2"/><path d="M42.45 13.32 24 23.97 5.55 13.32A3.928 3.928 0 0 1 7 11.88l15-8.66a3.974 3.974 0 0 1 4 0l15 8.66a3.928 3.928 0 0 1 1.45 1.44Z" style="fill:#f9f9f9"/><path d="M26.117 11.77a1.3 1.3 0 0 1 .008 2.459 4.671 4.671 0 0 1-4.239 0 1.3 1.3 0 0 1-.02-2.459 4.7 4.7 0 0 1 4.251 0ZM18.776 34.994a3.886 3.886 0 0 1 1.763 3.054c0 1.13-.8 1.582-1.774 1.018A3.883 3.883 0 0 1 17 36c0-1.121.793-1.573 1.776-1.006ZM14.509 27.465a3.886 3.886 0 0 1 1.763 3.054c0 1.13-.8 1.582-1.775 1.018a3.889 3.889 0 0 1-1.769-3.064c.003-1.123.798-1.573 1.781-1.008ZM10.242 19.936A3.884 3.884 0 0 1 12 22.99c0 1.129-.8 1.582-1.774 1.018a3.889 3.889 0 0 1-1.769-3.064c.007-1.123.801-1.575 1.785-1.008ZM29.933 25.435c.984-.567 1.778-.115 1.781 1.015a3.887 3.887 0 0 1-1.769 3.057c-.977.564-1.778.115-1.781-1.007a3.9 3.9 0 0 1 1.769-3.065ZM37.027 21.34c.983-.568 1.777-.115 1.781 1.015a3.887 3.887 0 0 1-1.77 3.057c-.976.564-1.771.111-1.774-1.011a3.887 3.887 0 0 1 1.763-3.061ZM29.957 33.586c.983-.567 1.777-.115 1.78 1.015a3.889 3.889 0 0 1-1.769 3.057c-.977.564-1.777.115-1.781-1.008a3.9 3.9 0 0 1 1.77-3.064ZM37.05 29.491c.983-.568 1.777-.115 1.781 1.015a3.889 3.889 0 0 1-1.769 3.057c-.977.564-1.772.111-1.775-1.012a3.887 3.887 0 0 1 1.763-3.06Z" class="cls-4"/><path d="m41.5 11.009-15-8.66a5.015 5.015 0 0 0-5 0l-15 8.661A5.014 5.014 0 0 0 4 15.34v17.32a5.012 5.012 0 0 0 2.5 4.33l15 8.66a5.012 5.012 0 0 0 5 0l15-8.66a5.012 5.012 0 0 0 2.5-4.33V15.34a5.017 5.017 0 0 0-2.5-4.331Zm-19-6.927a3.006 3.006 0 0 1 3 0l15 8.659a2.969 2.969 0 0 1 .408.314L24 22.815 7.093 13.056a2.9 2.9 0 0 1 .407-.314Zm-15 31.176A3.006 3.006 0 0 1 6 32.66V15.34a2.934 2.934 0 0 1 .075-.562L23 24.548v19.576a2.892 2.892 0 0 1-.5-.206ZM42 32.66a3.006 3.006 0 0 1-1.5 2.6l-15 8.66a2.892 2.892 0 0 1-.5.206V24.548l16.925-9.77a2.934 2.934 0 0 1 .075.562Z" class="cls-4"/></svg>