<svg xmlns="http://www.w3.org/2000/svg" viewBox="0 0 64 64"><defs><linearGradient id="a" x1="17" x2="47" y1="32" y2="32" gradientUnits="userSpaceOnUse"><stop offset="0" stop-color="#ffe500"/><stop offset="1" stop-color="#fcb415"/></linearGradient></defs><g data-name="Layer 25"><path d="M44.13 5H19.88A2.88 2.88 0 0 0 17 7.88v48.25A2.88 2.88 0 0 0 19.88 59h24.25A2.88 2.88 0 0 0 47 56.13V7.88A2.88 2.88 0 0 0 44.13 5ZM40 7a3 3 0 1 1-3 3 3 3 0 0 1 3-3Zm0 16a3 3 0 1 1-3 3 3 3 0 0 1 3-3ZM24 7a3 3 0 1 1-3 3 3 3 0 0 1 3-3Zm0 16a3 3 0 1 1-3 3 3 3 0 0 1 3-3Zm0 34a3 3 0 1 1 3-3 3 3 0 0 1-3 3Zm0-16a3 3 0 1 1 3-3 3 3 0 0 1-3 3Zm8 8a3 3 0 1 1 3-3 3 3 0 0 1-3 3Zm8 8a3 3 0 1 1 3-3 3 3 0 0 1-3 3Zm0-16a3 3 0 1 1 3-3 3 3 0 0 1-3 3Zm3-8H21a1 1 0 0 1 0-2h22a1 1 0 0 1 0 2Z" style="fill:url(#a)"/><path d="M44.13 3H19.88A4.89 4.89 0 0 0 15 7.88v48.25A4.88 4.88 0 0 0 19.88 61h24.25A4.88 4.88 0 0 0 49 56.13V7.88A4.88 4.88 0 0 0 44.13 3ZM47 56.13A2.88 2.88 0 0 1 44.13 59H19.88A2.88 2.88 0 0 1 17 56.13V7.88A2.88 2.88 0 0 1 19.88 5h24.25A2.88 2.88 0 0 1 47 7.88Z"/><path d="M43 31H21a1 1 0 0 0 0 2h22a1 1 0 0 0 0-2Z"/><circle cx="24" cy="38" r="3"/><circle cx="24" cy="54" r="3"/><circle cx="32" cy="46" r="3"/><circle cx="40" cy="38" r="3"/><circle cx="40" cy="54" r="3"/><circle cx="24" cy="10" r="3"/><circle cx="24" cy="26" r="3"/><circle cx="40" cy="10" r="3"/><circle cx="40" cy="26" r="3"/></g></svg>