<svg xmlns="http://www.w3.org/2000/svg" id="Reference" viewBox="0 0 48 48"><defs><style>.cls-2{fill:#51ce93}.cls-3{fill:#49ad94}.cls-6{fill:#09105a}</style></defs><rect width="38" height="38" x="5" y="5" rx="6" style="fill:#b6cee6"/><path d="M11 31a6.638 6.638 0 0 0-1 .09V12a2.006 2.006 0 0 1 2-2h19.09a6.638 6.638 0 0 0-.09 1 6 6 0 0 0 .38 2.08l-18.3 18.3A6 6 0 0 0 11 31ZM38 36a2.006 2.006 0 0 1-2 2H16.91a6.638 6.638 0 0 0 .09-1 6 6 0 0 0-.38-2.08l18.3-18.3A6 6 0 0 0 37 17a6.638 6.638 0 0 0 1-.09Z" class="cls-2"/><path d="M13 13h18.358A5.964 5.964 0 0 1 31 11a6.638 6.638 0 0 1 .09-1H12a2.006 2.006 0 0 0-2 2v19.09a6.638 6.638 0 0 1 1-.09 5.964 5.964 0 0 1 2 .358ZM16.91 38h1.63L38 18.54v-1.63a6.638 6.638 0 0 1-1 .09 6 6 0 0 1-2.08-.38l-18.3 18.3A6 6 0 0 1 17 37a6.638 6.638 0 0 1-.09 1Z" class="cls-3"/><circle cx="37" cy="11" r="2" style="fill:#d65363"/><circle cx="11" cy="37" r="2" style="fill:#58acdd"/><path d="M37 44H11a7.008 7.008 0 0 1-7-7V11a7.008 7.008 0 0 1 7-7h26a7.008 7.008 0 0 1 7 7v26a7.008 7.008 0 0 1-7 7ZM11 6a5.006 5.006 0 0 0-5 5v26a5.006 5.006 0 0 0 5 5h26a5.006 5.006 0 0 0 5-5V11a5.006 5.006 0 0 0-5-5Z" class="cls-6"/><path d="M37 14a3 3 0 1 1 3-3 3 3 0 0 1-3 3Zm0-4a1 1 0 1 0 1 1 1 1 0 0 0-1-1ZM11 40a3 3 0 1 1 3-3 3 3 0 0 1-3 3Zm0-4a1 1 0 1 0 1 1 1 1 0 0 0-1-1ZM13.085 32.38a1.009 1.009 0 0 1-.349-.063 4.648 4.648 0 0 0-2.571-.241A1 1 0 0 1 9 31.09V12a3 3 0 0 1 3-3h19.09a1 1 0 0 1 .986 1.166A4.918 4.918 0 0 0 32 11a4.973 4.973 0 0 0 .317 1.737 1 1 0 0 1-.23 1.055l-18.3 18.3a1 1 0 0 1-.702.288ZM11 30a6.9 6.9 0 0 1 1.809.242l17.433-17.433A6.914 6.914 0 0 1 30 11H12a1 1 0 0 0-1 1ZM36 39H16.91a1 1 0 0 1-.986-1.166A4.918 4.918 0 0 0 16 37a4.973 4.973 0 0 0-.317-1.737 1 1 0 0 1 .23-1.055l18.295-18.295a1 1 0 0 1 1.056-.23 4.664 4.664 0 0 0 2.571.241A1 1 0 0 1 39 16.91V36a3 3 0 0 1-3 3Zm-18-2h18a1 1 0 0 0 1-1V18a6.9 6.9 0 0 1-1.809-.242L17.758 35.191A6.914 6.914 0 0 1 18 37Z" class="cls-6"/></svg>