<?xml version="1.0" encoding="UTF-8" standalone="no"?> <svg width="48" height="48" viewBox="0 0 48 48" fill="none" xmlns="http://www.w3.org/2000/svg">
<path d="M39 5H9C6.79086 5 5 6.79086 5 9V39C5 41.2091 6.79086 43 9 43H39C41.2091 43 43 41.2091 43 39V9C43 6.79086 41.2091 5 39 5Z" fill="#00CF66"/>
<path d="M39 20H9C7.93913 20 6.92172 19.5786 6.17157 18.8284C5.42143 18.0783 5 17.0609 5 16V39C5 40.0609 5.42143 41.0783 6.17157 41.8284C6.92172 42.5786 7.93913 43 9 43H39C40.0609 43 41.0783 42.5786 41.8284 41.8284C42.5786 41.0783 43 40.0609 43 39V16C43 17.0609 42.5786 18.0783 41.8284 18.8284C41.0783 19.5786 40.0609 20 39 20Z" fill="#00B157"/>
<path d="M43.0001 9V24H36.0301C35.9412 23.9993 35.8537 24.0227 35.777 24.0676C35.7002 24.1124 35.637 24.1772 35.594 24.255C35.551 24.3329 35.5298 24.4209 35.5326 24.5097C35.5354 24.5986 35.5622 24.6851 35.6101 24.76C35.8623 25.1245 35.9983 25.5568 36.0001 26C35.9283 26.7271 35.5735 27.3968 35.0122 27.8645C34.4509 28.3323 33.7282 28.5605 33.0001 28.5C32.272 28.5605 31.5493 28.3323 30.988 27.8645C30.4267 27.3968 30.0719 26.7271 30.0001 26C30.0019 25.5568 30.1379 25.1245 30.3901 24.76C30.439 24.6853 30.4667 24.5986 30.47 24.5094C30.4734 24.4201 30.4523 24.3316 30.4091 24.2534C30.3659 24.1752 30.3022 24.1103 30.2248 24.0657C30.1475 24.021 30.0594 23.9983 29.9701 24H24.0001V18.03C23.9984 17.9407 24.0211 17.8526 24.0658 17.7752C24.1104 17.6979 24.1753 17.6342 24.2535 17.591C24.3317 17.5477 24.4202 17.5267 24.5094 17.53C24.5987 17.5334 24.6854 17.561 24.7601 17.61C25.1246 17.8622 25.5569 17.9982 26.0001 18C26.7272 17.9282 27.3969 17.5734 27.8646 17.0121C28.3323 16.4508 28.5606 15.7281 28.5001 15C28.5606 14.2719 28.3323 13.5492 27.8646 12.9879C27.3969 12.4266 26.7272 12.0718 26.0001 12C25.5569 12.0018 25.1246 12.1378 24.7601 12.39C24.6852 12.4379 24.5987 12.4647 24.5098 12.4675C24.421 12.4703 24.333 12.4491 24.2551 12.4061C24.1773 12.3631 24.1125 12.2999 24.0676 12.2231C24.0228 12.1464 23.9994 12.0589 24.0001 11.97V5H39.0001C40.061 5 41.0784 5.42143 41.8285 6.17157C42.5787 6.92172 43.0001 7.93913 43.0001 9Z" fill="#FD3730"/>
<path d="M39 20H24V24H29.97C30.0593 23.9983 30.1474 24.021 30.2248 24.0657C30.3021 24.1103 30.3658 24.1752 30.409 24.2534C30.4523 24.3316 30.4733 24.4201 30.47 24.5094C30.4666 24.5986 30.439 24.6853 30.39 24.76C30.1378 25.1245 30.0018 25.5568 30 26C30.0718 26.7271 30.4266 27.3968 30.9879 27.8645C31.5492 28.3323 32.2719 28.5605 33 28.5C33.7281 28.5605 34.4508 28.3323 35.0121 27.8645C35.5734 27.3968 35.9282 26.7271 36 26C35.9982 25.5568 35.8622 25.1245 35.61 24.76C35.5621 24.6851 35.5353 24.5986 35.5325 24.5097C35.5297 24.4209 35.5509 24.3329 35.5939 24.255C35.6369 24.1772 35.7001 24.1124 35.7769 24.0676C35.8536 24.0227 35.9411 23.9993 36.03 24H43V16C43 17.0609 42.5786 18.0783 41.8284 18.8284C41.0783 19.5786 40.0609 20 39 20Z" fill="#C92424"/>
<path d="M42.9998 24.0001V39.0001C42.9998 40.061 42.5784 41.0784 41.8282 41.8285C41.0781 42.5787 40.0607 43.0001 38.9998 43.0001H23.9998V36.0301C24.0015 35.9408 23.9788 35.8527 23.9341 35.7753C23.8895 35.698 23.8246 35.6342 23.7464 35.591C23.6682 35.5478 23.5797 35.5268 23.4904 35.5301C23.4012 35.5335 23.3145 35.5611 23.2398 35.6101C22.8753 35.8623 22.443 35.9983 21.9998 36.0001C21.2727 35.9283 20.603 35.5735 20.1353 35.0122C19.6675 34.4509 19.4393 33.7282 19.4998 33.0001C19.4393 32.272 19.6675 31.5493 20.1353 30.988C20.603 30.4267 21.2727 30.0719 21.9998 30.0001C22.443 30.0019 22.8753 30.1379 23.2398 30.3901C23.3147 30.438 23.4012 30.4647 23.4901 30.4676C23.5789 30.4704 23.6669 30.4492 23.7448 30.4062C23.8226 30.3632 23.8874 30.3 23.9322 30.2232C23.9771 30.1465 24.0005 30.059 23.9998 29.9701V24.0001H29.9698C30.0591 23.9984 30.1472 24.0211 30.2246 24.0658C30.3019 24.1104 30.3656 24.1753 30.4088 24.2535C30.4521 24.3317 30.4731 24.4202 30.4698 24.5094C30.4664 24.5987 30.4388 24.6854 30.3898 24.7601C30.1376 25.1246 30.0016 25.5569 29.9998 26.0001C30.0716 26.7272 30.4264 27.3969 30.9877 27.8646C31.549 28.3323 32.2717 28.5606 32.9998 28.5001C33.7279 28.5606 34.4506 28.3323 35.0119 27.8646C35.5732 27.3969 35.928 26.7272 35.9998 26.0001C35.998 25.5569 35.862 25.1246 35.6098 24.7601C35.5619 24.6852 35.5351 24.5987 35.5323 24.5098C35.5295 24.421 35.5507 24.333 35.5937 24.2551C35.6367 24.1773 35.6999 24.1125 35.7767 24.0676C35.8534 24.0228 35.9409 23.9994 36.0298 24.0001H42.9998Z" fill="#009AE0"/>
<path d="M39 39H24V43H39C40.0609 43 41.0783 42.5786 41.8284 41.8284C42.5786 41.0783 43 40.0609 43 39V35C43 36.0609 42.5786 37.0783 41.8284 37.8284C41.0783 38.5786 40.0609 39 39 39Z" fill="#0081BD"/>
<path d="M19.5 32.9998C19.4395 33.7279 19.6677 34.4506 20.1355 35.0119C20.6032 35.5732 21.2729 35.928 22 35.9998C22.4432 35.998 22.8755 35.862 23.24 35.6098C23.3147 35.5608 23.4014 35.5332 23.4906 35.5298C23.5799 35.5265 23.6684 35.5475 23.7466 35.5908C23.8248 35.634 23.8897 35.6977 23.9343 35.775C23.979 35.8524 24.0017 35.9405 24 36.0298V42.9998H9C7.93913 42.9998 6.92172 42.5784 6.17157 41.8282C5.42143 41.0781 5 40.0607 5 38.9998V23.9998H11.97C12.0593 24.0015 12.1474 23.9788 12.2248 23.9341C12.3021 23.8895 12.3658 23.8246 12.409 23.7464C12.4523 23.6682 12.4733 23.5797 12.47 23.4904C12.4666 23.4012 12.439 23.3145 12.39 23.2398C12.1378 22.8753 12.0018 22.443 12 21.9998C12.0718 21.2727 12.4266 20.603 12.9879 20.1353C13.5492 19.6675 14.2719 19.4393 15 19.4998C15.7281 19.4393 16.4508 19.6675 17.0121 20.1353C17.5734 20.603 17.9282 21.2727 18 21.9998C17.9982 22.443 17.8622 22.8753 17.61 23.2398C17.5621 23.3147 17.5353 23.4012 17.5325 23.4901C17.5297 23.5789 17.5509 23.6669 17.5939 23.7448C17.6369 23.8226 17.7001 23.8874 17.7769 23.9322C17.8536 23.9771 17.9411 24.0005 18.03 23.9998H24V29.9698C24.0007 30.0587 23.9773 30.1462 23.9324 30.2229C23.8876 30.2997 23.8228 30.3629 23.745 30.4059C23.6671 30.4489 23.5791 30.4701 23.4903 30.4673C23.4014 30.4645 23.3149 30.4377 23.24 30.3898C22.8755 30.1376 22.4432 30.0016 22 29.9998C21.2729 30.0716 20.6032 30.4264 20.1355 30.9877C19.6677 31.549 19.4395 32.2717 19.5 32.9998V32.9998Z" fill="#FAC100"/>
<path d="M5 35V39C5 40.0609 5.42143 41.0783 6.17157 41.8284C6.92172 42.5786 7.93913 43 9 43H24V39H9C7.93913 39 6.92172 38.5786 6.17157 37.8284C5.42143 37.0783 5 36.0609 5 35Z" fill="#FF9500"/>
<path d="M39 4H9C7.6744 4.00159 6.40356 4.52888 5.46622 5.46622C4.52888 6.40356 4.00159 7.6744 4 9V39C4.00159 40.3256 4.52888 41.5964 5.46622 42.5338C6.40356 43.4711 7.6744 43.9984 9 44H39C40.3256 43.9984 41.5964 43.4711 42.5338 42.5338C43.4711 41.5964 43.9984 40.3256 44 39V9C43.9984 7.6744 43.4711 6.40356 42.5338 5.46622C41.5964 4.52888 40.3256 4.00159 39 4V4ZM42 9V23H36.03C35.7549 22.9994 35.485 23.0745 35.2497 23.217C35.0145 23.3595 34.8229 23.564 34.696 23.808C34.5701 24.045 34.5116 24.312 34.5267 24.58C34.5419 24.848 34.6302 25.1067 34.782 25.328C34.9225 25.524 34.9986 25.7588 35 26C35 26.813 34.084 27.5 33 27.5C31.916 27.5 31 26.813 31 26C31.0015 25.7589 31.0776 25.5241 31.218 25.328C31.3699 25.107 31.4585 24.8486 31.474 24.5808C31.4895 24.313 31.4314 24.0461 31.306 23.809C31.1786 23.565 30.9869 23.3607 30.7515 23.218C30.5161 23.0754 30.2462 23 29.971 23H25V18.835C25.3221 18.9442 25.6599 18.9999 26 19C26.9925 18.9284 27.9168 18.4682 28.572 17.7193C29.2273 16.9704 29.5608 15.9933 29.5 15C29.5608 14.0067 29.2273 13.0296 28.572 12.2807C27.9168 11.5318 26.9925 11.0716 26 11C25.66 11.0001 25.3222 11.0555 25 11.164V6H39C39.7956 6 40.5587 6.31607 41.1213 6.87868C41.6839 7.44129 42 8.20435 42 9ZM9 6H23V11.97C22.9994 12.2451 23.0745 12.515 23.217 12.7503C23.3595 12.9855 23.564 13.1771 23.808 13.304C24.0451 13.4299 24.3123 13.4883 24.5803 13.4728C24.8484 13.4573 25.107 13.3685 25.328 13.216C25.5245 13.0768 25.7591 13.0014 26 13C26.813 13 27.5 13.916 27.5 15C27.5 16.084 26.813 17 26 17C25.7588 16.9986 25.524 16.9225 25.328 16.782C25.107 16.6301 24.8486 16.5415 24.5808 16.526C24.313 16.5105 24.0461 16.5686 23.809 16.694C23.565 16.8214 23.3607 17.0131 23.218 17.2485C23.0754 17.4839 23 17.7538 23 18.029V23H18.835C18.9442 22.6779 18.9999 22.3401 19 22C18.9284 21.0075 18.4682 20.0832 17.7193 19.428C16.9704 18.7727 15.9933 18.4392 15 18.5C14.0067 18.4392 13.0296 18.7727 12.2807 19.428C11.5318 20.0832 11.0716 21.0075 11 22C11.0001 22.3401 11.0558 22.6779 11.165 23H6V9C6 8.20435 6.31607 7.44129 6.87868 6.87868C7.44129 6.31607 8.20435 6 9 6V6ZM6 39V25H11.971C12.2462 25 12.5161 24.9246 12.7515 24.782C12.9869 24.6393 13.1786 24.435 13.306 24.191C13.4314 23.9541 13.4895 23.6874 13.4742 23.4199C13.4588 23.1523 13.3706 22.894 13.219 22.673C13.078 22.4768 13.0015 22.2416 13 22C13 21.187 13.916 20.5 15 20.5C16.084 20.5 17 21.187 17 22C16.9986 22.2412 16.9225 22.476 16.782 22.672C16.6302 22.8933 16.5419 23.152 16.5267 23.42C16.5116 23.688 16.5701 23.955 16.696 24.192C16.8229 24.436 17.0145 24.6405 17.2497 24.783C17.485 24.9255 17.7549 25.0006 18.03 25H23V29.165C22.6779 29.0557 22.3401 29 22 29C21.0075 29.0716 20.0832 29.5318 19.428 30.2807C18.7727 31.0296 18.4392 32.0067 18.5 33C18.4392 33.9933 18.7727 34.9704 19.428 35.7193C20.0832 36.4682 21.0075 36.9284 22 37C22.3401 36.9999 22.6779 36.9442 23 36.835V42H9C8.20435 42 7.44129 41.6839 6.87868 41.1213C6.31607 40.5587 6 39.7956 6 39ZM39 42H25V36.029C25 35.7538 24.9246 35.4839 24.782 35.2485C24.6393 35.0131 24.435 34.8214 24.191 34.694C23.9541 34.5686 23.6873 34.5105 23.4197 34.526C23.1521 34.5415 22.8938 34.63 22.673 34.782C22.4765 34.9224 22.2415 34.9985 22 35C21.187 35 20.5 34.084 20.5 33C20.5 31.916 21.187 31 22 31C22.2413 31.0014 22.4763 31.0772 22.673 31.217C22.8941 31.3688 23.1526 31.4571 23.4204 31.4725C23.6881 31.4878 23.955 31.4296 24.192 31.304C24.436 31.1771 24.6405 30.9855 24.783 30.7503C24.9255 30.515 25.0006 30.2451 25 29.97V25H29.165C29.0558 25.3221 29.0001 25.6599 29 26C29.0716 26.9925 29.5318 27.9168 30.2807 28.572C31.0296 29.2273 32.0067 29.5608 33 29.5C33.9933 29.5608 34.9704 29.2273 35.7193 28.572C36.4682 27.9168 36.9284 26.9925 37 26C36.9999 25.6599 36.9442 25.3221 36.835 25H42V39C42 39.7956 41.6839 40.5587 41.1213 41.1213C40.5587 41.6839 39.7956 42 39 42Z" fill="black"/>
</svg>
