<svg xmlns="http://www.w3.org/2000/svg" xml:space="preserve" width="163.839" height="163.839" style="shape-rendering:geometricPrecision;text-rendering:geometricPrecision;image-rendering:optimizeQuality;fill-rule:evenodd;clip-rule:evenodd" viewBox="0 0 1707 1707"><defs><style>.fil0{fill:#df5a49}</style></defs><g id="Layer_x0020_1"><path d="M1397 1364c-9 0-15-4-21-11-1-1-103-154-336-234-12-4-19-18-15-31 4-12 37-145 78-210 7-12 22-16 33-9 79 49 226 157 313 344 3 6 3 11 2 17l-32 118c-3 9-10 16-19 18-2-2-2-2-3-2zM310 1364h-4c-10-1-17-8-20-18l-30-118c-2-5-2-11 1-16 88-189 234-297 314-344 11-7 26-3 33 8s58 149 79 212c4 13-3 27-15 31-235 80-336 233-336 234-6 7-14 11-22 11z" class="fil0"/><path d="M853 1262c-154 0-321-208-324-663v-3C561 234 688 0 853 0c167 0 293 234 325 596v3c-3 456-171 663-325 663z" style="fill:#e4e4ff"/><path d="M853 1262c-8 0-16-1-25-2V908c0-14 11-25 25-25s25 11 25 25v352c-8 1-16 2-25 2z" class="fil0"/><path d="M853 537c-57 0-102-46-102-103s45-103 102-103c56 0 102 46 102 103s-46 103-102 103z" style="fill:#48427d"/><path d="M702 1707c-14 0-25-11-25-25v-275c0-14 11-25 25-25s25 11 25 25v275c-1 14-12 25-25 25zM1009 1707c-14 0-25-11-25-25v-275c0-14 11-25 25-25 13 0 25 11 25 25v275c0 14-12 25-25 25zM853 1592c-14 0-25-12-25-25v-255c0-14 11-25 25-25s25 11 25 25v255c0 14-11 25-25 25zM853 0c-95 0-178 78-237 214-6 14-12 30-18 46 77 6 155 9 237 9 97 0 189-4 274-11-6-16-13-32-19-47C1031 77 949 0 853 0z" class="fil0"/></g></svg>