<svg xmlns="http://www.w3.org/2000/svg" xml:space="preserve" width="163.839" height="163.839" style="shape-rendering:geometricPrecision;text-rendering:geometricPrecision;image-rendering:optimizeQuality;fill-rule:evenodd;clip-rule:evenodd" viewBox="0 0 1707 1707"><defs><style>.fil1{fill:#e3ab32}</style></defs><g id="Layer_x0020_1"><g id="_14199224"><path d="M1346 1275z" style="fill:#000"/><path d="M846 1707c-4 0-8-1-12-3C90 1278 90 935 90 184v-68c0-13 9-23 22-24 298-33 464-58 564-74 170-25 173-25 345 0 99 16 266 41 564 74 13 1 22 11 22 24 0 107 3 198 6 280 11 346 17 504-243 893 0 1-1 1-1 3-132 150-331 312-506 412-8 2-12 3-17 3z" class="fil1"/><path d="M851 1501c-5 0-9-1-13-2-565-324-565-582-564-1150v-50c0-13 10-22 23-24 223-25 348-44 423-55 131-20 132-20 263 0 75 11 200 30 423 55 13 2 22 11 22 24 0 65 2 124 3 179 3 188 6 324-35 454-93 296-430 508-531 565-6 3-10 4-14 4z" style="fill:#fcbe37"/><path d="M851 1352c-9 0-17-5-21-13-7-11-3-26 8-33 152-88 332-241 385-406 4-12 18-19 30-15 13 4 20 18 16 30-73 225-329 389-407 434-3 3-7 3-11 3z" style="fill:#fff"/></g><g id="_14203160"><path d="M846 1707c-4 0-8-1-12-3C90 1278 90 935 90 184v-68c0-13 9-23 22-24 298-33 464-58 564-74C765 5 808-1 853 0v1706c-2 1-4 1-7 1z" style="fill:#cc9a2d"/><path d="M851 1501c-5 0-9-1-13-2-565-324-565-582-564-1150v-50c0-13 10-22 23-24 223-25 348-44 423-55 67-10 100-15 133-15v1296h-2z" class="fil1"/><path d="M851 1352c-9 0-17-5-21-13-7-11-3-26 8-33l15-9v54c-1 1-1 1-2 1z" style="fill:#e6e6e6"/></g></g></svg>