<?xml version="1.0" encoding="UTF-8" standalone="no"?><svg xmlns="http://www.w3.org/2000/svg" id="Layer_1" data-name="Layer 1" viewBox="0 0 48 48"><defs><style>.cls-1{fill:#dbe6f7}.cls-3{fill:#ffa221}.cls-4{fill:#ff8200}.cls-5{fill:#ffc343}</style></defs><path d="m18.842 33.428-4.27-4.27a1 1 0 0 1-.022-1.392L35.911 5.025a1 1 0 0 1 .618-.309l6.36-.71a1 1 0 0 1 1.1 1.1l-.71 6.361a1.006 1.006 0 0 1-.309.618L20.234 33.45a1 1 0 0 1-1.392-.022Z" class="cls-1"/><path d="M18.842 33.428a1 1 0 0 0 1.392.022l22.741-21.361a1 1 0 0 0 .309-.618l.71-6.361a1 1 0 0 0-.287-.817L22.5 25.5l-3-3-2.421 2.579L20 28l-3.293 3.293Z" style="fill:#aecee8"/><path d="m6.032 43.269-1.3-1.3a2.506 2.506 0 0 1-.7-2.167 2.476 2.476 0 0 1 1.359-1.839l.361-.176a3.52 3.52 0 0 0 .8-.571l6.91-6.921a1 1 0 0 1 .706-.295 1 1 0 0 1 .707.293l2.83 2.83a1 1 0 0 1 0 1.414l-6.908 6.9a3.552 3.552 0 0 0-.569.783l-.2.4A2.472 2.472 0 0 1 8.2 43.968a2.543 2.543 0 0 1-.4.032 2.507 2.507 0 0 1-1.768-.731Z" class="cls-3"/><path d="m5.382 42.618 10.909-10.909 1.415 1.415a1 1 0 0 1 0 1.414l-6.908 6.9a3.552 3.552 0 0 0-.569.783l-.2.4A2.472 2.472 0 0 1 8.2 43.968a2.543 2.543 0 0 1-.4.032 2.507 2.507 0 0 1-1.769-.731Z" class="cls-4"/><path d="M16 36.243 11.756 32a4 4 0 0 1 0-5.657 2 2 0 0 1 2.829 0l7.071 7.071a2 2 0 0 1 0 2.828 4 4 0 0 1-5.657 0Z" class="cls-5"/><path d="m18.12 29.88 3.536 3.535a2 2 0 0 1 0 2.828 4 4 0 0 1-5.657 0l-2.121-2.121Z" class="cls-3"/><path d="M28.45 33.721a1 1 0 0 1-.684-.271L5.025 12.089a1.006 1.006 0 0 1-.309-.618l-.71-6.361a1 1 0 0 1 1.1-1.1l6.36.71a1 1 0 0 1 .618.309L33.45 27.766a1 1 0 0 1-.022 1.392l-4.27 4.27a1 1 0 0 1-.708.293Z" style="fill:#eff3f9"/><path d="M4.716 11.471a1.006 1.006 0 0 0 .309.618L27.766 33.45a1 1 0 0 0 1.392-.022l2.135-2.135-27-27a1 1 0 0 0-.287.817Z" class="cls-1"/><path d="M40.2 44a2.543 2.543 0 0 1-.4-.032 2.472 2.472 0 0 1-1.834-1.349l-.2-.4a3.552 3.552 0 0 0-.569-.783l-6.908-6.9a1 1 0 0 1 0-1.414l2.83-2.83a1 1 0 0 1 .712-.292 1 1 0 0 1 .707.293l6.91 6.921a3.52 3.52 0 0 0 .8.571l.361.176a2.476 2.476 0 0 1 1.359 1.839 2.506 2.506 0 0 1-.7 2.167l-1.3 1.3A2.507 2.507 0 0 1 40.2 44Z" class="cls-3"/><path d="M42.618 42.618 31.709 31.709l-1.415 1.415a1 1 0 0 0 0 1.414l6.908 6.9a3.552 3.552 0 0 1 .569.783l.2.4a2.472 2.472 0 0 0 1.829 1.347 2.543 2.543 0 0 0 .4.032 2.507 2.507 0 0 0 1.769-.731Z" class="cls-4"/><path d="M29.173 37.415a3.973 3.973 0 0 1-2.829-1.172 2 2 0 0 1 0-2.828l7.071-7.071a2 2 0 0 1 2.829 0 4 4 0 0 1 0 5.657L32 36.243a3.971 3.971 0 0 1-2.827 1.172Z" class="cls-5"/><path d="m29.88 29.88-3.536 3.535a2 2 0 0 0 0 2.828 4 4 0 0 0 5.657 0l2.121-2.121Z" class="cls-3"/></svg>